<?xml version="1.0" standalone="no"?>
<!DOCTYPE svg PUBLIC "-//W3C//DTD SVG 20010904//EN"
 "http://www.w3.org/TR/2001/REC-SVG-20010904/DTD/svg10.dtd">
<svg version="1.0" xmlns="http://www.w3.org/2000/svg"
 width="229.000000pt" height="220.000000pt" viewBox="0 0 229.000000 220.000000"
 preserveAspectRatio="xMidYMid meet">

<g transform="translate(0.000000,220.000000) scale(0.100000,-0.100000)"
fill="#000000" stroke="none">
<path d="M1291 1914 c0 -11 3 -14 6 -6 3 7 2 16 -1 19 -3 4 -6 -2 -5 -13z"/>
<path d="M1717 1863 c3 -7 6 -13 8 -13 2 0 5 6 8 13 3 8 -1 14 -8 14 -7 0 -11
-6 -8 -14z"/>
<path d="M1902 1864 c-7 -8 -8 -14 -3 -14 10 0 25 19 20 25 -2 1 -10 -3 -17
-11z"/>
<path d="M1855 1860 c-3 -5 -1 -10 4 -10 6 0 11 5 11 10 0 6 -2 10 -4 10 -3 0
-8 -4 -11 -10z"/>
<path d="M1428 1813 c7 -3 16 -2 19 1 4 3 -2 6 -13 5 -11 0 -14 -3 -6 -6z"/>
<path d="M1190 1771 c0 -6 4 -13 10 -16 6 -3 7 1 4 9 -7 18 -14 21 -14 7z"/>
<path d="M1005 1683 c-14 -13 -18 -14 -25 -2 -7 11 -10 10 -16 -4 -3 -10 1
-28 10 -42 l16 -25 -41 0 c-32 0 -40 -3 -35 -15 4 -12 -3 -15 -32 -15 l-37 0
42 -19 c37 -18 94 -24 176 -22 25 1 27 3 17 22 -6 11 -9 25 -6 32 3 9 5 8 5
-1 1 -9 6 -10 20 -2 11 5 22 6 25 1 7 -11 78 -2 92 12 7 7 64 -2 79 -14 6 -4
21 -2 34 5 39 22 9 28 -135 30 -143 1 -134 -2 -138 49 -2 28 -28 33 -51 10z"/>
<path d="M1398 1568 c-13 -19 -27 -22 -119 -29 -57 -4 -149 -13 -204 -19 -55
-6 -124 -13 -153 -14 -59 -3 -90 -21 -51 -30 31 -7 108 -2 133 9 14 6 17 5 12
-3 -4 -8 0 -12 11 -12 11 0 28 -7 39 -15 10 -8 32 -15 48 -15 23 0 27 -3 23
-20 -7 -26 -4 -25 29 5 22 21 29 23 48 12 l21 -12 -23 -3 c-13 -2 -26 -10 -29
-18 -3 -8 -13 -14 -22 -14 -14 0 -14 -2 -1 -10 23 -14 3 -24 -25 -12 -21 10
-25 9 -25 -4 0 -8 4 -12 10 -9 6 4 7 -1 3 -11 -5 -13 -2 -15 18 -10 13 3 18 3
11 0 -6 -3 -10 -9 -8 -13 3 -4 -13 -18 -35 -31 -21 -14 -37 -30 -35 -37 7 -18
-15 -28 -25 -12 -6 11 -12 6 -21 -18 -18 -47 -68 -65 -68 -25 0 10 7 12 26 8
21 -6 25 -4 22 11 -2 10 -11 17 -21 17 -9 -1 -15 2 -12 6 3 5 1 11 -5 15 -5 3
-10 -1 -10 -10 0 -9 -3 -14 -7 -12 -5 3 -8 -13 -8 -36 0 -32 -4 -42 -18 -43
-12 -1 -13 -1 -2 3 23 7 18 21 -9 21 -15 0 -26 -7 -29 -19 -3 -11 -13 -19 -22
-19 -19 0 -71 -53 -56 -58 8 -3 7 -10 -1 -25 -11 -21 -11 -21 -19 -2 -6 17 -8
16 -8 -7 -1 -23 -6 -28 -26 -28 -15 0 -25 6 -25 14 0 8 -5 18 -12 22 -7 4 -8
3 -4 -4 4 -7 1 -12 -8 -12 -19 0 -30 17 -14 23 7 2 10 8 6 12 -7 8 -33 -13
-36 -29 -2 -11 -56 -12 -95 -2 -18 4 -25 11 -20 19 5 9 4 9 -8 0 -23 -19 -39
3 -39 55 0 32 -3 41 -12 36 -10 -6 -10 -4 -2 7 6 8 16 40 23 72 7 31 19 63 26
71 16 16 14 44 -5 56 -8 5 -10 17 -6 35 l7 27 -31 -22 c-39 -27 -39 -18 0 19
17 16 33 38 35 50 5 25 2 25 -34 7 -42 -22 -100 -92 -127 -151 -48 -109 -58
-170 -58 -335 0 -142 2 -161 27 -232 34 -99 87 -198 195 -367 43 -67 128 -155
142 -146 5 3 7 0 4 -8 -8 -21 97 -106 153 -122 26 -8 80 -14 118 -14 39 1 101
-5 139 -11 95 -17 305 -2 291 20 -3 4 9 10 27 14 76 15 208 143 311 301 40 61
114 236 138 323 28 104 28 103 46 219 16 99 16 103 -6 200 -13 54 -30 121 -38
148 -16 55 -64 140 -79 140 -17 1 -83 50 -93 70 -5 11 -10 15 -10 8 -1 -8 -12
-6 -34 7 -49 29 -125 50 -183 50 -42 0 -54 -4 -66 -22z m344 -158 c7 -11 18
-20 25 -20 7 0 13 -6 13 -14 0 -8 3 -16 8 -18 16 -7 72 -139 72 -170 0 -10 5
-18 11 -18 5 0 8 -4 5 -9 -3 -4 -2 -21 3 -37 12 -46 -12 -203 -45 -291 -20
-54 -38 -57 -29 -4 3 21 1 57 -5 80 -9 33 -8 46 5 72 17 31 17 122 0 194 -3
17 -7 38 -8 48 -1 9 -4 17 -8 17 -3 0 -9 18 -13 40 -8 52 -26 90 -43 90 -7 0
-13 3 -13 8 0 4 -3 17 -6 30 -8 28 11 29 28 2z"/>
<path d="M818 1563 c7 -3 16 -2 19 1 4 3 -2 6 -13 5 -11 0 -14 -3 -6 -6z"/>
<path d="M820 1500 c0 -5 5 -10 10 -10 6 0 10 5 10 10 0 6 -4 10 -10 10 -5 0
-10 -4 -10 -10z"/>
<path d="M553 1417 c-3 -6 -1 -7 5 -3 16 9 15 -17 0 -32 -6 -6 -9 -14 -7 -17
5 -5 30 17 55 48 10 11 6 14 -18 14 -16 0 -32 -5 -35 -10z"/>
</g>
</svg>
