<?xml version="1.0" standalone="no"?>
<!DOCTYPE svg PUBLIC "-//W3C//DTD SVG 20010904//EN"
 "http://www.w3.org/TR/2001/REC-SVG-20010904/DTD/svg10.dtd">
<svg version="1.0" xmlns="http://www.w3.org/2000/svg"
 width="512.000000pt" height="512.000000pt" viewBox="0 0 512.000000 512.000000"
 preserveAspectRatio="xMidYMid meet">

<g transform="translate(0.000000,512.000000) scale(0.100000,-0.100000)"
fill="#378CE7" stroke="none">
<path d="M667 5100 c-25 -20 -26 -27 -29 -123 l-3 -102 -166 -5 c-156 -5 -168
-6 -202 -30 -20 -13 -46 -43 -59 -65 l-23 -40 -3 -2279 c-1 -1568 1 -2290 8
-2317 6 -22 24 -55 41 -73 62 -72 -74 -67 1816 -64 l1701 3 39 31 c21 16 48
50 61 74 l22 45 -2 2296 -3 2295 -27 41 c-46 70 -88 83 -266 83 l-152 0 0 84
c0 47 -5 97 -10 112 -21 55 -68 69 -113 34 -25 -20 -26 -27 -29 -123 l-3 -102
-142 -3 -143 -3 0 91 c0 60 -5 101 -15 119 -23 46 -66 54 -109 20 -25 -20 -26
-24 -26 -125 l0 -104 -144 0 -144 0 -4 106 c-3 97 -5 107 -27 125 -32 26 -67
24 -96 -6 -23 -22 -25 -31 -25 -125 l0 -100 -145 0 -145 0 0 100 c0 94 -2 103
-25 125 -31 32 -69 32 -100 0 -23 -22 -25 -31 -25 -125 l0 -100 -145 0 -145 0
0 104 c0 101 -1 105 -26 125 -43 34 -86 26 -109 -20 -10 -18 -15 -59 -15 -119
l0 -91 -142 3 -143 3 -3 102 c-3 96 -4 103 -29 123 -45 35 -92 21 -113 -34 -5
-15 -10 -65 -10 -112 l0 -84 -140 0 -140 0 0 84 c0 47 -5 97 -10 112 -21 55
-68 69 -113 34z m-27 -480 c0 -115 13 -140 73 -140 57 0 71 26 75 141 l4 99
138 0 138 0 4 -99 c4 -115 18 -141 75 -141 60 0 73 25 73 140 l0 100 144 0
144 0 4 -99 c4 -115 18 -141 75 -141 60 0 73 25 73 140 l0 100 145 0 145 0 0
-94 c0 -79 3 -97 21 -120 27 -34 79 -36 109 -4 17 19 20 35 20 120 l0 98 145
0 145 0 0 -98 c0 -85 3 -101 20 -120 30 -32 82 -30 109 4 18 23 21 41 21 120
l0 94 145 0 145 0 0 -100 c0 -115 13 -140 73 -140 57 0 71 26 75 141 l4 99
144 0 144 0 0 -100 c0 -115 13 -140 73 -140 57 0 71 26 75 141 l4 99 137 0
c93 0 141 -4 149 -12 17 -17 17 -4529 0 -4546 -17 -17 -3349 -17 -3366 0 -17
17 -17 4529 0 4546 8 8 57 12 155 12 l143 0 0 -100z"/>
<path d="M1043 4023 c-11 -10 -75 -91 -142 -180 -67 -90 -123 -163 -126 -163
-2 0 -36 38 -75 85 -64 76 -75 85 -105 85 -22 0 -41 -8 -55 -22 -38 -41 -27
-68 81 -203 56 -69 110 -130 120 -135 33 -18 64 -11 96 23 50 53 315 410 327
439 23 61 -70 116 -121 71z"/>
<path d="M1718 3956 c-43 -32 -38 -103 8 -125 14 -6 75 -11 138 -11 99 0 117
3 140 21 19 15 26 30 26 54 0 24 -7 39 -26 54 -24 19 -40 21 -148 21 -84 -1
-126 -5 -138 -14z"/>
<path d="M2263 3955 c-11 -8 -24 -26 -27 -40 -7 -29 15 -79 39 -89 32 -12
1112 -7 1139 5 34 16 47 57 31 96 -7 16 -20 33 -30 37 -9 3 -267 6 -574 6
-475 0 -560 -2 -578 -15z"/>
<path d="M1718 3656 c-39 -30 -40 -92 0 -122 25 -20 1679 -20 1704 0 40 30 39
92 0 122 -25 20 -1679 20 -1704 0z"/>
<path d="M1054 3125 c-12 -8 -79 -91 -150 -186 l-128 -171 -41 48 c-93 113
-110 127 -146 126 -22 0 -40 -8 -51 -23 -35 -43 -24 -70 83 -201 108 -133 142
-159 183 -140 22 10 349 431 363 468 9 23 -16 70 -43 83 -33 15 -45 14 -70 -4z"/>
<path d="M1735 3061 c-51 -21 -65 -91 -24 -123 20 -17 75 -18 859 -18 799 0
839 1 861 18 30 25 30 75 0 105 l-22 22 -827 2 c-455 1 -836 -2 -847 -6z"/>
<path d="M1723 2758 c-46 -22 -45 -114 2 -132 21 -8 1668 -8 1690 0 8 4 22 19
30 34 19 36 4 83 -31 99 -34 15 -1659 15 -1691 -1z"/>
<path d="M1033 2198 c-16 -18 -79 -98 -138 -178 -59 -80 -111 -149 -115 -153
-3 -4 -27 19 -52 51 -102 129 -128 144 -182 101 -28 -22 -34 -56 -14 -92 23
-44 200 -248 221 -256 47 -18 72 6 235 223 87 116 164 222 171 234 15 28 5 68
-22 87 -35 24 -70 18 -104 -17z"/>
<path d="M1735 2161 c-49 -20 -64 -83 -30 -121 18 -20 29 -20 865 -20 836 0
847 0 865 20 25 28 23 76 -4 103 l-22 22 -827 2 c-455 1 -836 -2 -847 -6z"/>
<path d="M1716 1848 c-36 -33 -39 -75 -6 -108 20 -20 33 -20 585 -20 l566 0
24 25 c14 13 25 31 25 39 0 28 -22 64 -47 75 -16 8 -192 11 -573 11 l-549 0
-25 -22z"/>
<path d="M3153 1860 c-46 -19 -57 -83 -20 -118 21 -20 34 -22 144 -22 67 0
129 3 138 6 8 4 22 19 30 34 19 36 4 83 -31 99 -29 13 -229 14 -261 1z"/>
<path d="M1744 1263 c-55 -11 -76 -86 -35 -126 l22 -22 839 0 839 0 22 22 c29
29 29 77 0 106 l-22 22 -822 1 c-452 1 -832 0 -843 -3z"/>
<path d="M1730 957 c-51 -26 -57 -102 -10 -127 12 -6 328 -10 853 -10 796 0
836 1 858 18 30 25 30 75 0 105 l-22 22 -827 2 c-651 2 -832 0 -852 -10z"/>
<path d="M4382 4820 c-56 -12 -98 -43 -122 -90 -20 -39 -20 -66 -20 -1988 l0
-1949 130 -349 c138 -371 150 -394 211 -394 55 0 86 25 109 87 12 32 73 196
136 364 l114 307 0 1923 c0 1293 -4 1936 -10 1961 -13 45 -52 93 -94 115 -25
14 -67 17 -221 19 -104 2 -209 -1 -233 -6z m403 -172 c3 -13 4 -129 3 -258
l-3 -235 -197 -3 -198 -2 0 253 c0 140 3 257 7 260 3 4 91 7 194 7 187 0 189
0 194 -22z m5 -2184 l0 -1536 -22 6 c-79 22 -185 29 -264 18 -46 -7 -91 -15
-99 -18 -13 -5 -15 163 -15 1530 l0 1536 200 0 200 0 0 -1536z m-64 -1676 l42
-13 -87 -232 c-47 -127 -89 -234 -92 -237 -5 -5 -179 450 -179 467 0 4 35 14
105 31 33 8 167 -2 211 -16z"/>
</g>
</svg>
